<?xml version="1.0" standalone="no"?>
<!DOCTYPE svg PUBLIC "-//W3C//DTD SVG 20010904//EN"
 "http://www.w3.org/TR/2001/REC-SVG-20010904/DTD/svg10.dtd">
<svg version="1.0" xmlns="http://www.w3.org/2000/svg"
 width="1024.000000pt" height="1536.000000pt" viewBox="0 0 1024.000000 1536.000000"
 preserveAspectRatio="xMidYMid meet">

<g transform="translate(0.000000,1536.000000) scale(0.100000,-0.100000)"
fill="#ffff" stroke="none">
<path d="M4951 10637 c-102 -232 -261 -595 -354 -807 -158 -359 -303 -693
-567 -1305 -59 -137 -176 -407 -260 -600 -83 -192 -212 -489 -285 -660 -74
-170 -169 -392 -213 -492 l-80 -183 217 0 217 0 16 33 c19 39 273 636 281 657
3 11 7 8 15 -10 5 -14 108 -248 227 -520 119 -272 275 -629 346 -793 72 -164
211 -481 310 -705 99 -224 210 -475 247 -559 37 -83 70 -149 73 -145 6 6 80
173 249 562 203 466 279 640 385 885 65 149 162 374 217 500 159 364 299 696
319 750 l18 50 21 -50 c11 -27 80 -186 152 -352 l131 -303 208 0 c118 0 209 4
209 9 0 5 -31 83 -69 173 -264 628 -601 1415 -852 1991 -94 216 -196 451 -226
522 -31 72 -138 319 -238 550 -100 231 -202 465 -225 520 -45 106 -302 699
-304 702 0 1 -84 -188 -185 -420z m310 -883 c134 -311 472 -1094 705 -1633
l154 -354 -116 -266 c-243 -557 -359 -823 -596 -1366 -135 -308 -251 -575
-258 -593 -15 -39 -18 -37 -55 48 -94 220 -301 697 -410 945 -215 490 -535
1227 -535 1231 0 3 30 73 66 157 36 84 124 285 194 447 70 162 167 385 215
495 48 110 139 319 202 465 64 146 154 353 200 460 47 107 90 207 96 222 6 15
13 26 15 24 2 -2 57 -129 123 -282z"/>
</g>
</svg>
